<?xml version="1.0" standalone="no"?>
<!DOCTYPE svg PUBLIC "-//W3C//DTD SVG 20010904//EN"
 "http://www.w3.org/TR/2001/REC-SVG-20010904/DTD/svg10.dtd">
<svg version="1.0" xmlns="http://www.w3.org/2000/svg"
 width="256.000000pt" height="256.000000pt" viewBox="0 0 256.000000 256.000000"
 preserveAspectRatio="xMidYMid meet">
<metadata>
Created by potrace 1.11, written by Peter Selinger 2001-2013
</metadata>
<g transform="translate(0.000000,256.000000) scale(0.100000,-0.100000)"
fill="#000000" stroke="none">
<path d="M579 2438 c-86 -12 -105 -18 -166 -49 -75 -38 -159 -123 -195 -199
-24 -51 -29 -68 -43 -140 -3 -14 -5 -207 -4 -430 0 -223 1 -412 1 -420 0 -8 0
-235 0 -505 0 -269 0 -500 -1 -512 0 -13 5 -23 12 -23 91 -3 249 0 257 5 5 3
10 2 10 -3 0 -10 56 -9 67 1 3 4 17 0 31 -9 13 -9 22 -11 18 -6 -4 7 4 10 21
8 16 -1 27 -8 25 -15 -1 -7 2 -10 8 -6 6 3 7 11 4 17 -5 7 -1 9 9 5 9 -3 19
-2 23 4 3 6 12 3 21 -8 8 -10 12 -13 9 -7 -3 7 13 11 45 13 30 1 48 -2 45 -8
-4 -5 -2 -13 4 -16 6 -4 9 -1 8 7 -2 9 12 13 54 14 31 1 63 4 72 7 9 4 16 3
16 -2 0 -4 20 -6 45 -5 25 2 43 -1 40 -6 -3 -5 -1 -12 5 -15 6 -4 9 -1 8 6 -2
9 10 13 37 14 22 0 43 5 47 10 5 6 8 5 8 -3 0 -7 5 -10 10 -7 6 4 18 1 27 -7
9 -7 14 -8 10 -2 -4 7 11 11 44 13 30 1 48 -2 45 -8 -4 -5 -2 -13 4 -16 6 -4
9 -1 8 7 -2 9 12 13 54 14 31 1 63 4 72 7 9 4 16 3 16 -2 0 -9 57 -8 67 2 3 4
17 0 31 -9 13 -9 22 -11 18 -6 -4 7 4 10 21 8 16 -1 27 -8 25 -15 -1 -7 2 -10
8 -6 6 3 7 11 4 17 -5 7 -1 9 9 5 9 -3 19 -2 23 4 3 6 12 3 21 -8 8 -10 12
-13 9 -7 -3 7 13 11 45 13 30 1 48 -2 45 -8 -4 -5 -2 -13 4 -16 6 -4 9 -1 8 7
-2 9 12 13 54 14 31 1 63 4 72 7 9 4 16 3 16 -2 0 -4 20 -6 45 -5 25 2 43 -1
40 -6 -3 -5 -1 -12 5 -15 6 -4 9 -1 8 6 -2 9 10 13 37 14 22 0 43 5 47 10 5 6
8 5 8 -3 0 -7 5 -10 10 -7 6 4 18 1 27 -7 9 -7 14 -8 10 -2 -4 7 11 11 44 13
30 1 48 -2 45 -8 -4 -5 -2 -13 4 -16 6 -4 9 -1 8 7 -2 9 13 13 55 14 31 1 60
4 64 7 3 4 12 2 19 -4 8 -7 14 -7 19 2 4 6 7 423 7 928 0 671 3 918 12 923 8
6 7 8 -1 8 -8 0 -13 14 -13 38 -1 168 -135 332 -306 371 -56 13 -1423 22
-1505 9z"/>
</g>
</svg>
