<?xml version="1.0" standalone="no"?>
<!DOCTYPE svg PUBLIC "-//W3C//DTD SVG 20010904//EN"
 "http://www.w3.org/TR/2001/REC-SVG-20010904/DTD/svg10.dtd">
<svg version="1.0" xmlns="http://www.w3.org/2000/svg"
 width="256.000000pt" height="256.000000pt" viewBox="0 0 256.000000 256.000000"
 preserveAspectRatio="xMidYMid meet">
<metadata>
Created by potrace 1.11, written by Peter Selinger 2001-2013
</metadata>
<g transform="translate(0.000000,256.000000) scale(0.100000,-0.100000)"
fill="#000000" stroke="none">
<path d="M570 2429 c-103 -11 -172 -43 -246 -111 -79 -74 -129 -169 -144 -273
-6 -42 -10 -437 -10 -977 l0 -908 1110 0 1110 0 0 938 c0 606 -4 960 -11 1002
-28 171 -162 304 -336 330 -67 10 -1377 9 -1473 -1z m1054 -116 c60 -22 127
-80 164 -141 l27 -47 3 -236 3 -236 -32 -7 c-41 -8 -317 -8 -358 0 l-31 7 0
128 0 129 -120 0 -120 0 0 -165 0 -165 128 0 c238 -1 329 -28 421 -125 29 -30
64 -81 79 -112 l27 -58 3 -439 c2 -350 0 -441 -10 -448 -15 -9 -1028 -11
-1052 -2 -14 5 -16 45 -16 345 l0 339 210 0 210 0 0 -130 0 -130 120 0 120 0
0 164 0 164 -177 4 c-198 5 -230 13 -321 75 -66 45 -119 117 -143 194 -17 54
-19 95 -19 363 0 249 3 311 16 349 26 77 115 164 192 187 15 5 162 9 327 9
262 1 306 -1 349 -16z m-1094 -253 c11 -11 20 -26 20 -32 0 -7 -5 -5 -11 5
-25 42 -88 4 -74 -46 6 -21 5 -21 -14 3 -27 33 -26 44 5 69 33 26 49 26 74 1z
m1620 -2 c11 -12 20 -27 20 -32 0 -6 -7 -3 -14 7 -30 40 -97 -2 -75 -47 9 -18
7 -17 -11 3 -26 31 -22 62 10 78 35 18 46 16 70 -9z m-1650 -1458 c13 -8 13
-10 -2 -10 -10 0 -22 -10 -29 -22 -10 -19 -12 -20 -21 -4 -6 11 -6 22 2 32 14
16 29 18 50 4z m1620 0 c13 -8 12 -10 -4 -10 -10 0 -24 -7 -31 -17 -17 -23
-38 -8 -25 18 12 21 36 24 60 9z"/>
</g>
</svg>
